<svg version="1.0" xmlns="http://www.w3.org/2000/svg" width="200.000000pt" height="200.000000pt" viewBox="0 0 200.000000 200.000000" preserveAspectRatio="xMidYMid meet">
    <circle cx="100" cy="100" r="100" fill="white" />
    <g transform="translate(0.000000,220.000000) scale(0.100000,-0.100000)" fill="#800000" stroke="none">
        <path d="M790 1566 l-195 -113 0 -243 0 -244 203 -117 202 -117 203 117 202
        117 0 243 0 243 -195 114 c-107 62 -202 113 -210 113 -8 0 -103 -51 -210 -113z
        m371 -34 c83 -48 152 -92 152 -97 0 -6 -29 -27 -66 -48 l-66 -38 -86 50 c-47
        28 -90 51 -95 51 -5 0 -47 -22 -94 -50 -47 -27 -88 -50 -91 -50 -16 0 -134 76
        -131 85 3 11 295 183 313 184 6 1 80 -39 164 -87z m-161 -217 l0 -74 -69 -41
        c-38 -22 -74 -40 -80 -40 -7 0 -11 27 -11 70 l0 69 78 45 c42 25 78 46 80 46
        1 0 2 -34 2 -75z m360 -119 l0 -194 -159 -92 c-88 -50 -164 -90 -168 -88 -7 2
        -8 51 -4 143 1 14 27 34 91 70 l90 50 0 110 0 110 73 42 c39 23 73 42 75 42 1
        1 2 -86 2 -193z m-265 -37 c30 -17 55 -34 55 -38 0 -4 -34 -26 -75 -50 l-75
        -42 -60 33 c-33 18 -60 36 -60 40 0 9 131 87 148 88 7 0 37 -14 67 -31z"/>
    </g>
</svg>
